<svg xmlns="http://www.w3.org/2000/svg" width="46" height="46" viewBox="0 0 46 46">
  <defs>
    <style>
      .cls-1 {
        fill: #1a1a1a;
        fill-rule: evenodd;
      }
    </style>
  </defs>
  <path id="i2.svg" class="cls-1" d="M1129,1451.5a9.509,9.509,0,0,1-9.5,9.5,9.4,9.4,0,0,1-5.18-1.55l-0.01.01-22.77-14.31v-0.01a15.989,15.989,0,1,1,21.12-22.43l0.02-.01,14.72,23.53h0A9.442,9.442,0,0,1,1129,1451.5Zm-9.5,7.5a7.5,7.5,0,1,0-7.5-7.5A7.5,7.5,0,0,0,1119.5,1459Zm-20.5-42a14,14,0,1,0,14,14A14.015,14.015,0,0,0,1099,1417Zm0,30c-0.28,0-.55-0.03-0.83-0.04l12.42,7.79a9.231,9.231,0,0,1-.59-3.25,9.478,9.478,0,0,1,12.77-8.91l-7.82-12.49c0.02,0.3.05,0.6,0.05,0.9A16.021,16.021,0,0,1,1099,1447Zm0-11a5,5,0,1,1,5-5A5,5,0,0,1,1099,1436Zm0-8a3,3,0,1,0,3,3A3.009,3.009,0,0,0,1099,1428Zm20.5,19a4.5,4.5,0,1,1-4.5,4.5A4.507,4.507,0,0,1,1119.5,1447Zm0,7a2.5,2.5,0,1,0-2.5-2.5A2.5,2.5,0,0,0,1119.5,1454Z" transform="translate(-1083 -1415)"/>
</svg>

