<svg xmlns="http://www.w3.org/2000/svg" width="40" height="46" viewBox="0 0 40 46">
  <defs>
    <style>
      .cls-1 {
        fill: #1a1a1a;
        fill-rule: evenodd;
      }
    </style>
  </defs>
  <path id="i1.svg" class="cls-1" d="M1102.47,1421.71l1.42-1.42,2.26,2.25,6.33-7.2,1.52,1.32-7.75,8.8Zm-1.3,4.29h10.06v-4h2.01v6h-14.08v-13h10.06v2h-8.05v9Zm-19.41,14.29a5.856,5.856,0,0,0,4.15,1.71h2.18v2h-2.18a7.835,7.835,0,0,1-5.57-2.29Zm7.34,13.71a2.014,2.014,0,0,1-2.01,2h-7.05a2.008,2.008,0,0,1-2.01-2v-3.38a3.948,3.948,0,0,1-1-2.62v-6a3.571,3.571,0,0,1,.33-1.81l1.06-1.56-2.54-.64a2,2,0,0,1-1.87-1.99v-2a2.008,2.008,0,0,1,2.01-2h4.49a2.016,2.016,0,0,1,1.52.71,39.545,39.545,0,0,1,2.27-4.35,5.022,5.022,0,0,1,2.76-1.52l0.48-.07a65.2,65.2,0,0,1,9.6-.77v2a62.4,62.4,0,0,0-9.31.75l-0.49.07a3.082,3.082,0,0,0-1.5.82c-0.25.35-1.43,2.72-2.49,4.98l0.12,0.18a6.186,6.186,0,0,0,2.61,1.2h11.06v2h-11.06a7.52,7.52,0,0,1-4.22-1.98l-1.35-2.02h-4.49v2l0.24,0.03,2.64,0.66a1.974,1.974,0,0,1,1.39,1.21,2,2,0,0,1-.2,1.84l-0.99,1.47a4.142,4.142,0,0,0-.06.79v6a2.008,2.008,0,0,0,2.01,2h16.09v2h-8.04v2Zm-2.01-2h-6.04a4.242,4.242,0,0,1-1.01-.14V1454h7.05v-2Zm1-6h9.05v2h-9.05v-2Zm21.13-13h-8.05v9h10.06v-4h2.01v6h-14.08v-13h10.06v2Zm-6.75,4.71,1.42-1.42,2.26,2.25,6.33-7.2,1.52,1.32-7.75,8.8Zm10.77,23.29h-14.08v-13h14.08v13Zm-2.01-11h-10.06v9h10.06v-9Z" transform="translate(-1074 -1415)"/>
</svg>

