<svg xmlns="http://www.w3.org/2000/svg" width="44" height="44" viewBox="0 0 44 44">
  <defs>
    <style>
      .cls-1 {
        fill: #1a1a1a;
        fill-rule: evenodd;
      }
    </style>
  </defs>
  <path id="i10.svg" class="cls-1" d="M1106,1460a22,22,0,1,1,22-22A22.026,22.026,0,0,1,1106,1460Zm0-42a20,20,0,1,0,20,20A20.02,20.02,0,0,0,1106,1418Zm14.37,17.67a1.792,1.792,0,0,1-.51-0.07,60.831,60.831,0,0,0-27.72,0h0a1.977,1.977,0,0,1-1.94-.54,1.943,1.943,0,0,1-.48-1.93,16.99,16.99,0,0,1,32.56,0,1.943,1.943,0,0,1-.48,1.93A1.968,1.968,0,0,1,1120.37,1435.67ZM1106,1423a15.078,15.078,0,0,0-14.35,10.66,62.757,62.757,0,0,1,28.72.01A15.106,15.106,0,0,0,1106,1423Zm-14.46,17h5.31a2,2,0,0,1,1.83,1.22,8.039,8.039,0,0,0,4.1,4.1,2,2,0,0,1,1.22,1.83v5.31a1.98,1.98,0,0,1-.79,1.58,1.958,1.958,0,0,1-1.2.41,2,2,0,0,1-.54-0.07h0a17.051,17.051,0,0,1-11.85-11.85A2,2,0,0,1,1091.54,1440Zm10.46,12.45h0v-5.3a9.942,9.942,0,0,1-5.15-5.12l-5.31-.03A15.067,15.067,0,0,0,1102,1452.45Zm7.22-7.13a8.039,8.039,0,0,0,4.1-4.1,2,2,0,0,1,1.83-1.22h5.31a2,2,0,0,1,1.92,2.53,17.051,17.051,0,0,1-11.85,11.85,2,2,0,0,1-.54.07,1.958,1.958,0,0,1-1.2-.41,1.98,1.98,0,0,1-.79-1.58v-5.31A2,2,0,0,1,1109.22,1445.32Zm11.23-3.32h-5.3a9.942,9.942,0,0,1-5.12,5.15l-0.03,5.31A15.067,15.067,0,0,0,1120.45,1442Z" transform="translate(-1084 -1416)"/>
</svg>

