<svg width="24" height="24" viewBox="0 0 24 24" fill="none" xmlns="http://www.w3.org/2000/svg">
<g clip-path="url(#clip0_2019_137)">
<path d="M16.4072 6.83496C16.5417 6.83711 16.6646 6.84161 16.7744 6.85059C16.9996 6.86903 17.217 6.90928 17.4238 7.01465C17.7373 7.17442 17.9926 7.42971 18.1523 7.74316C18.2577 7.94999 18.298 8.16734 18.3164 8.39258C18.3343 8.61203 18.334 8.88111 18.334 9.19922V14.7998C18.334 15.1179 18.3343 15.387 18.3164 15.6064C18.298 15.8316 18.2575 16.0491 18.1523 16.2559C17.9927 16.5692 17.7371 16.8246 17.4238 16.9844C17.2171 17.0897 16.9996 17.13 16.7744 17.1484C16.5549 17.1664 16.2851 17.166 15.9668 17.166H8.0332C7.7151 17.166 7.44603 17.1663 7.22656 17.1484C7.0012 17.13 6.78408 17.0898 6.57715 16.9844C6.26355 16.8246 6.00842 16.5695 5.84863 16.2559C5.74334 16.049 5.70298 15.8317 5.68457 15.6064C5.66667 15.3869 5.66699 15.118 5.66699 14.7998V9.19922C5.66699 8.88111 5.66664 8.61203 5.68457 8.39258C5.70301 8.16732 5.74327 7.95 5.84863 7.74316C6.00843 7.42974 6.26368 7.17437 6.57715 7.01465C6.78398 6.90938 7.00132 6.869 7.22656 6.85059C7.44602 6.83268 7.71512 6.83301 8.0332 6.83301H15.9668L16.4072 6.83496ZM13.0234 11.8369C12.4216 12.305 11.5794 12.3049 10.9775 11.8369L6.68066 8.49512C6.66842 8.66169 6.66699 8.87831 6.66699 9.19922V14.7998C6.66699 15.1345 6.66782 15.356 6.68164 15.5254C6.695 15.6887 6.71761 15.7602 6.73926 15.8027C6.80318 15.9281 6.90586 16.0299 7.03125 16.0938C7.07384 16.1154 7.14542 16.139 7.30859 16.1523C7.47787 16.1661 7.69903 16.166 8.0332 16.166H15.9668C16.3014 16.166 16.523 16.1662 16.6924 16.1523C16.8558 16.139 16.9272 16.1154 16.9697 16.0938C17.0948 16.0299 17.1969 15.9278 17.2607 15.8027C17.2824 15.7602 17.306 15.6884 17.3193 15.5254C17.3332 15.356 17.334 15.1344 17.334 14.7998V9.19922C17.334 8.87828 17.3316 8.66169 17.3193 8.49512L13.0234 11.8369ZM7.6084 7.83496C7.55806 7.83574 7.51122 7.83927 7.46777 7.84082L11.5908 11.0479C11.8315 11.235 12.1685 11.2349 12.4092 11.0479L16.5322 7.84082C16.4888 7.83929 16.4419 7.83575 16.3916 7.83496L15.9668 7.83301H8.0332L7.6084 7.83496Z" fill="white"/>
</g>
<defs>
<clipPath id="clip0_2019_137">
<rect width="24" height="24" fill="white"/>
</clipPath>
</defs>
</svg>
