<svg width="24" height="24" viewBox="0 0 24 24" fill="none" xmlns="http://www.w3.org/2000/svg">
<g clip-path="url(#clip0_2013_180)">
<path d="M12 24C18.6274 24 24 18.6274 24 12C24 5.3726 18.6274 0 12 0C5.3726 0 0 5.3726 0 12C0 18.6274 5.3726 24 12 24Z" fill="white"/>
<path d="M4.20703 12.2825C5.60983 11.5098 7.17574 10.8649 8.63884 10.2167C11.156 9.15499 13.6831 8.11169 16.2357 7.14039C16.7323 6.97489 17.6247 6.81304 17.7122 7.54904C17.6643 8.59084 17.4672 9.62654 17.332 10.6622C16.9888 12.9398 16.5922 15.2096 16.2055 17.4797C16.0722 18.2359 15.125 18.6273 14.5189 18.1434C13.0623 17.1595 11.5945 16.1852 10.1565 15.1785C9.6854 14.6999 10.1222 14.0125 10.5429 13.6707C11.7426 12.4884 13.0149 11.4839 14.1519 10.2405C14.4586 9.49989 13.5524 10.1241 13.2535 10.3153C11.6111 11.4471 10.0089 12.648 8.27729 13.6427C7.39279 14.1296 6.36188 13.7135 5.47778 13.4418C4.68506 13.1136 3.52353 12.7829 4.20703 12.2825Z" fill="#161616"/>
</g>
<defs>
<clipPath id="clip0_2013_180">
<rect width="24" height="24" fill="white"/>
</clipPath>
</defs>
</svg>
