<svg width="24" height="24" viewBox="0 0 24 24" fill="none" xmlns="http://www.w3.org/2000/svg">
<g clip-path="url(#clip0_2019_134)">
<path fill-rule="evenodd" clip-rule="evenodd" d="M12.3948 18.6763H12.3918C11.1976 18.6759 10.0241 18.3762 8.98187 17.8077L5.19922 18.8L6.21152 15.1024C5.58707 14.0203 5.25852 12.7928 5.25902 11.5351C5.26062 7.60089 8.46162 4.40004 12.3947 4.40004C14.3035 4.40086 16.0951 5.14399 17.4423 6.49274C18.7895 7.84144 19.531 9.63419 19.5303 11.5408C19.5287 15.4742 16.329 18.6747 12.3948 18.6763ZM9.15717 16.516L9.37372 16.6445C10.2843 17.1849 11.3281 17.4708 12.3924 17.4712H12.3948C15.6636 17.4712 18.3242 14.8106 18.3255 11.5404C18.3261 9.95564 17.7098 8.46559 16.5901 7.34454C15.4703 6.22349 13.9812 5.60579 12.3971 5.60524C9.12567 5.60524 6.46512 8.26559 6.46382 11.5356C6.46337 12.6562 6.77692 13.7476 7.37057 14.6918L7.51162 14.9162L6.91247 17.1048L9.15717 16.516ZM15.7454 13.077C15.8698 13.1371 15.9538 13.1777 15.9896 13.2376C16.0342 13.3119 16.0342 13.6689 15.8857 14.0854C15.737 14.5019 15.0247 14.882 14.6822 14.9332C14.375 14.9791 13.9863 14.9983 13.5592 14.8625C13.3002 14.7804 12.9682 14.6707 12.5428 14.487C10.8713 13.7652 9.74172 12.1452 9.52822 11.839C9.51327 11.8176 9.50282 11.8026 9.49697 11.7948L9.49557 11.7929C9.40122 11.667 8.76897 10.8234 8.76897 9.95044C8.76897 9.12914 9.17237 8.69869 9.35807 8.50054C9.37082 8.48699 9.38252 8.47449 9.39297 8.46304C9.55642 8.28454 9.74957 8.23989 9.86842 8.23989C9.98727 8.23989 10.1063 8.24099 10.2102 8.24624C10.223 8.24689 10.2363 8.24679 10.2501 8.24669C10.354 8.24609 10.4835 8.24534 10.6113 8.55229C10.6605 8.67039 10.7324 8.84554 10.8083 9.03024C10.9617 9.40374 11.1312 9.81644 11.161 9.87614C11.2056 9.96539 11.2353 10.0695 11.1759 10.1885C11.167 10.2063 11.1587 10.2232 11.1508 10.2393C11.1062 10.3304 11.0734 10.3974 10.9976 10.4859C10.9678 10.5207 10.937 10.5582 10.9062 10.5957C10.8449 10.6704 10.7836 10.7451 10.7302 10.7983C10.6409 10.8872 10.548 10.9836 10.652 11.1621C10.756 11.3406 11.1138 11.9245 11.6438 12.3973C12.2136 12.9055 12.7088 13.1203 12.9598 13.2291C13.0088 13.2504 13.0485 13.2676 13.0777 13.2822C13.2559 13.3715 13.3599 13.3565 13.4639 13.2376C13.5679 13.1186 13.9096 12.7169 14.0284 12.5385C14.1473 12.3601 14.2662 12.3898 14.4296 12.4492C14.5931 12.5088 15.4696 12.9401 15.6479 13.0293C15.6827 13.0467 15.7153 13.0625 15.7454 13.077Z" fill="white"/>
</g>
<defs>
<clipPath id="clip0_2019_134">
<rect width="24" height="24" fill="white"/>
</clipPath>
</defs>
</svg>
