<svg xmlns="http://www.w3.org/2000/svg" width="48" height="37" viewBox="0 0 48 37">
  <defs>
    <style>
      .cls-1 {
        fill: #1a1a1a;
        fill-rule: evenodd;
      }
    </style>
  </defs>
  <path id="i6.svg" class="cls-1" d="M1128,1431v25h-44v-25h-2v-8h7v-4h11v4h13v-4h11v4h6v8h-2Zm-30-10h-7v2h7v-2Zm24,0h-7v2h7v-2Zm6,4h-44v4h5v2h-3v23h40v-23h-3v-2h5v-4Zm-25.18,26.61a1,1,0,0,1-.8.39,0.978,0.978,0,0,1-.41-0.09,1,1,0,0,1-.57-1.11l1.71-8.26-5.29.65a1,1,0,0,1-.92-1.59l10.97-14.4a1,1,0,0,1,1.78.81l-1.71,8.26,5.3-.66a1.019,1.019,0,0,1,.99.49,1,1,0,0,1-.08,1.11Zm3.62-13.19a0.966,0.966,0,0,1-.86-0.31,0.978,0.978,0,0,1-.24-0.88l1.1-5.32-6.87,9.01,4.32-.54a0.57,0.57,0,0,1,.13-0.01,1,1,0,0,1,.98,1.2l-1.11,5.33,6.87-9.01Z" transform="translate(-1082 -1419)"/>
</svg>

