<svg width="24" height="24" viewBox="0 0 24 24" fill="none" xmlns="http://www.w3.org/2000/svg">
<path d="M21 15C21.5523 15 22 15.4477 22 16V16.2002C22 17.0237 22.001 17.7016 21.9561 18.252C21.9101 18.814 21.8117 19.3311 21.5645 19.8164C21.181 20.5689 20.5689 21.181 19.8164 21.5645C19.3311 21.8117 18.814 21.9101 18.252 21.9561C17.7016 22.001 17.0237 22 16.2002 22H7.79981C6.97632 22 6.29843 22.001 5.74805 21.9561C5.18599 21.9101 4.6689 21.8117 4.1836 21.5645C3.43109 21.181 2.81902 20.5689 2.43555 19.8164C2.18827 19.3311 2.08988 18.814 2.04395 18.252C1.99898 17.7016 2 17.0237 2 16.2002V16C2 15.4477 2.44772 15 3 15C3.55229 15 4 15.4477 4 16V16.2002C4 17.0566 4.00035 17.6388 4.03711 18.0889C4.07293 18.5273 4.13809 18.7518 4.21778 18.9082C4.40951 19.2845 4.71555 19.5905 5.0918 19.7822C5.2482 19.8619 5.47272 19.9271 5.91113 19.9629C6.36117 19.9997 6.94342 20 7.79981 20H16.2002C17.0566 20 17.6388 19.9997 18.0889 19.9629C18.5273 19.9271 18.7518 19.8619 18.9082 19.7822C19.2845 19.5905 19.5905 19.2845 19.7822 18.9082C19.8619 18.7518 19.9271 18.5273 19.9629 18.0889C19.9997 17.6388 20 17.0566 20 16.2002V16C20 15.4477 20.4477 15 21 15ZM12 2C12.5523 2 13 2.44772 13 3V13.5859L15.293 11.293C15.6835 10.9024 16.3165 10.9024 16.707 11.293C17.0976 11.6835 17.0976 12.3165 16.707 12.707L13.4141 16C12.6818 16.7322 11.5228 16.7784 10.7373 16.1377L10.5859 16L7.29297 12.707L7.22461 12.6309C6.90426 12.2381 6.92686 11.6591 7.29297 11.293C7.65909 10.9269 8.23809 10.9043 8.63086 11.2246L8.70703 11.293L11 13.5859V3C11 2.44772 11.4477 2 12 2Z" fill="#EA0C0C"/>
</svg>
