<svg width="34" height="34" viewBox="0 0 34 34" fill="none" xmlns="http://www.w3.org/2000/svg">
<g opacity="0.5">
<path d="M16.6022 13.0229L17.9944 11.6308C18.2816 11.3433 18.6227 11.1152 18.9981 10.9595C19.3735 10.8039 19.7759 10.7237 20.1823 10.7236C20.5887 10.7235 20.9911 10.8035 21.3666 10.959C21.7421 11.1145 22.0832 11.3424 22.3706 11.6298C22.658 11.9171 22.8859 12.2583 23.0414 12.6338C23.1969 13.0093 23.2768 13.4117 23.2767 13.8181C23.2766 14.2245 23.1965 14.6269 23.0408 15.0023C22.8852 15.3777 22.6571 15.7188 22.3696 16.006L20.3808 17.9948C20.0936 18.282 19.7525 18.5099 19.3772 18.6654C19.0018 18.8209 18.5995 18.9009 18.1932 18.9009C17.7869 18.9009 17.3847 18.8209 17.0093 18.6654C16.6339 18.5099 16.2929 18.282 16.0056 17.9948" stroke="white" stroke-width="2" stroke-linecap="round" stroke-linejoin="round"/>
<path d="M17.3976 20.9776L16.0055 22.3697C15.7183 22.6572 15.3772 22.8853 15.0018 23.041C14.6264 23.1966 14.224 23.2768 13.8176 23.2769C13.4112 23.277 13.0088 23.197 12.6333 23.0415C12.2578 22.886 11.9166 22.6581 11.6293 22.3707C11.3419 22.0834 11.114 21.7422 10.9585 21.3667C10.803 20.9912 10.7231 20.5888 10.7231 20.1824C10.7232 19.776 10.8034 19.3736 10.9591 18.9982C11.1147 18.6228 11.3428 18.2817 11.6303 17.9945L13.619 16.0057C13.9063 15.7185 14.2474 15.4906 14.6227 15.3351C14.9981 15.1796 15.4004 15.0996 15.8067 15.0996C16.2129 15.0996 16.6152 15.1796 16.9906 15.3351C17.3659 15.4906 17.707 15.7185 17.9943 16.0057" stroke="white" stroke-width="2" stroke-linecap="round" stroke-linejoin="round"/>
</g>
</svg>
