<svg width="24" height="24" viewBox="0 0 24 24" fill="none" xmlns="http://www.w3.org/2000/svg">
<g clip-path="url(#clip0_2019_131)">
<path d="M4.46882 12.5867C5.87161 11.814 7.43751 11.1691 8.90061 10.5209C11.4177 9.45922 13.9448 8.41592 16.4974 7.44462C16.9941 7.27912 17.8864 7.11727 17.9739 7.85327C17.926 8.89507 17.7289 9.93077 17.5937 10.9665C17.2506 13.2441 16.854 15.5139 16.4672 17.784C16.334 18.5401 15.3867 18.9316 14.7806 18.4477C13.324 17.4638 11.8562 16.4895 10.4182 15.4828C9.94716 15.0041 10.384 14.3168 10.8047 13.975C12.0044 12.7927 13.2767 11.7882 14.4137 10.5448C14.7204 9.80412 13.8142 10.4283 13.5153 10.6196C11.8729 11.7514 10.2707 12.9523 8.53906 13.947C7.65456 14.4339 6.62366 14.0178 5.73956 13.7461C4.94685 13.4179 3.78532 13.0872 4.46882 12.5867Z" fill="white"/>
</g>
<defs>
<clipPath id="clip0_2019_131">
<rect width="24" height="24" fill="white"/>
</clipPath>
</defs>
</svg>
