<svg xmlns="http://www.w3.org/2000/svg" width="47" height="44" viewBox="0 0 47 44">
  <defs>
    <style>
      .cls-1 {
        fill: #1a1a1a;
        fill-rule: evenodd;
      }
    </style>
  </defs>
  <path id="i7.svg" class="cls-1" d="M1117,1460h-15c-3.28,0-6.33-2.32-8.58-6.53l1.77-.94c1.88,3.53,4.3,5.47,6.81,5.47h15c2.19,0,4.23-1.51,5.9-4H1120v-2h4v0.13a26.335,26.335,0,0,0,1.88-5.13H1123v-2h3.33a35.807,35.807,0,0,0,.64-6H1124v-2h2.97a35.807,35.807,0,0,0-.64-6H1123v-2h2.88a26.335,26.335,0,0,0-1.88-5.13V1424h-4v-2h2.9c-1.67-2.49-3.71-4-5.9-4h-15c-2.53,0-4.47,1.95-5.65,3.58l-1.62-1.16c2.08-2.89,4.6-4.42,7.27-4.42h15c6.73,0,12,9.66,12,22S1123.73,1460,1117,1460Zm-13-6a6.46,6.46,0,0,1-4.73-2.32l1.47-1.36A4.637,4.637,0,0,0,1104,1452c3.79,0,7-6.41,7-14s-3.21-14-7-14a4.633,4.633,0,0,0-3.26,1.68l-1.48-1.35A6.509,6.509,0,0,1,1104,1422c5.05,0,9,7.03,9,16S1109.05,1454,1104,1454Zm8-2h4v2h-4v-2Zm3-7h4v2h-4v-2Zm5-6h-4v-2h4v2Zm-8-17h4v2h-4v-2Zm7,9h-4v-2h4v2Zm-19,0a9.008,9.008,0,0,1-5,8.05V1443a2.006,2.006,0,0,1-2,2h-1v2a3.009,3.009,0,0,0,3,3h0.13a2.972,2.972,0,0,0,2.3-1.08l2.6-3.12a5,5,0,0,1,3.84-1.8H1108v2h-4.13a2.972,2.972,0,0,0-2.3,1.08l-2.6,3.12a5,5,0,0,1-3.84,1.8H1095a5,5,0,0,1-5-5v-2h-1a2.006,2.006,0,0,1-2-2v-3.95A9,9,0,1,1,1100,1431Zm-11,12h4v-3.23a8.811,8.811,0,0,1-4,0V1443Zm2-19a7,7,0,1,0,7,7A7.008,7.008,0,0,0,1091,1424Zm-1,3h2v6h-2v-6Z" transform="translate(-1082 -1416)"/>
</svg>

