<svg xmlns="http://www.w3.org/2000/svg" width="44.91" height="44.94" viewBox="0 0 44.91 44.94">
  <defs>
    <style>
      .cls-1 {
        fill: #1a1a1a;
        fill-rule: evenodd;
      }
    </style>
  </defs>
  <path id="i5.svg" class="cls-1" d="M1107.99,1460a19.912,19.912,0,0,1-19.77-16.86l1.98-.31a18.013,18.013,0,1,0,20.64-20.63l0.31-1.98A20.016,20.016,0,0,1,1107.99,1460Zm8-20.01a8.005,8.005,0,1,1-8-8.01A8.011,8.011,0,0,1,1115.99,1439.99Zm-14.01,0a6.005,6.005,0,1,0,6.01-6.01A6.013,6.013,0,0,0,1101.98,1439.99Zm10.01,0a4.005,4.005,0,1,1-4-4.01A4.012,4.012,0,0,1,1111.99,1439.99Zm-6,0a2,2,0,1,0,2-2.01A2,2,0,0,0,1105.99,1439.99Zm0.41-11.9a12.3,12.3,0,0,0-10.31,10.28,2.975,2.975,0,0,1-2.94,2.62h-7.08a3.024,3.024,0,0,1-2.23-.99,2.975,2.975,0,0,1-.76-2.27,25.477,25.477,0,0,1,22.65-22.66,3.013,3.013,0,0,1,3.26,3v7.11A2.95,2.95,0,0,1,1106.4,1428.09Zm0.59-10.02a1.016,1.016,0,0,0-.34-0.75,0.917,0.917,0,0,0-.64-0.26,0.277,0.277,0,0,0-.09.01,23.426,23.426,0,0,0-20.85,20.85,0.938,0.938,0,0,0,.25.73,1.022,1.022,0,0,0,.75.33h7.08a0.981,0.981,0,0,0,.96-0.89,14.344,14.344,0,0,1,12.01-11.99,0.964,0.964,0,0,0,.87-0.92v-7.11Zm-4.01,2.9h2.01v2h-2.01v-2Zm-14,14.01h2v2h-2v-2Z" transform="translate(-1083.09 -1415.06)"/>
</svg>

