<svg xmlns="http://www.w3.org/2000/svg" width="48" height="40" viewBox="0 0 48 40">
  <defs>
    <style>
      .cls-1 {
        fill: #1a1a1a;
        fill-rule: evenodd;
      }
    </style>
  </defs>
  <path id="i4.svg" class="cls-1" d="M1119,1458v-2h4v-14h-11v-2h11v-11h6v27h1v2h-11Zm8-27h-2v25h2v-25Zm-5.81-3.67-1.12.37a4.4,4.4,0,0,1,.93,2.71V1432a3.989,3.989,0,0,1-1,2.63V1437a2.006,2.006,0,0,1-2,2h-4a2.006,2.006,0,0,1-2-2v-1h-12v1a2.006,2.006,0,0,1-2,2h-4a2.006,2.006,0,0,1-2-2v-2.37a3.989,3.989,0,0,1-1-2.63v-1.59a4.4,4.4,0,0,1,.93-2.71l-1.12-.37a2,2,0,0,1-1.81-1.99V1424a2.006,2.006,0,0,1,2-2h3a2.322,2.322,0,0,1,1.43.82l0.97-2.18a3.963,3.963,0,0,1,3.76-2.64h11.68a3.987,3.987,0,0,1,3.79,2.74l0.94,2.09a2.3,2.3,0,0,1,1.43-.83h3a2.006,2.006,0,0,1,2,2v1.34A2,2,0,0,1,1121.19,1427.33Zm-7.42-5.87a2.042,2.042,0,0,0-1.93-1.46h-11.68a2.009,2.009,0,0,0-1.9,1.37l-1.21,2.74a4.066,4.066,0,0,0,1.95.89h14a4.066,4.066,0,0,0,1.95-.89ZM1121,1424h-2.73c-0.11.09-.26,0.22-0.44,0.38-1.15.98-3.07,2.62-4.83,2.62h-14c-1.76,0-3.68-1.64-4.83-2.62-0.18-.15-0.33-0.29-0.44-0.38H1091v1.34l0.31,0.05,2.69,0.89v2.13l-0.29.3a2.367,2.367,0,0,0-.71,1.7V1432a1.991,1.991,0,0,0,.67,1.48l0.33,0.3V1437h4v-1h-3v-2h22v2h-3v1h4v-3.22l0.33-.3a1.991,1.991,0,0,0,.67-1.48v-1.59a2.367,2.367,0,0,0-.71-1.7l-0.29-.3v-2.13l3-.94V1424Zm-9,5a6.369,6.369,0,0,0,3.94-1.38l1.29,1.52A8.242,8.242,0,0,1,1112,1431v-2Zm-11,2h10v2h-10v-2Zm-4.94-3.38A6.369,6.369,0,0,0,1100,1429v2a8.242,8.242,0,0,1-5.23-1.86ZM1089,1429v11h11v2h-11v14h4v2h-11v-2h1v-27h6Zm-4,27h2v-25h-2v25Z" transform="translate(-1082 -1418)"/>
</svg>

